<svg width="13" height="17" viewBox="0 0 13 17" fill="none" xmlns="http://www.w3.org/2000/svg">
    <path d="M0.438315 6.59249L0.783181 6.23046C0.71856 6.1689 0.668853 6.09706 0.635674 6.01981C0.602524 5.94263 0.586192 5.86085 0.586939 5.77899C0.587685 5.69714 0.605509 5.61557 0.640117 5.53882C0.674757 5.46201 0.725859 5.39086 0.791722 5.33027L0.791773 5.33032L0.798052 5.32434L5.59709 0.752861L5.59745 0.752517C5.66112 0.691751 5.73822 0.642466 5.82484 0.608726L5.82653 0.60806C6.0023 0.53885 6.20101 0.53885 6.37678 0.608063L6.37847 0.608722C6.46509 0.642467 6.5422 0.691751 6.60586 0.752517L6.60622 0.75286L11.4017 5.32092C11.5247 5.44364 11.5883 5.60217 11.5869 5.76164C11.5854 5.92228 11.5179 6.08111 11.3906 6.20237C11.2626 6.32439 11.0844 6.39754 10.8934 6.39912C10.7038 6.40069 10.5253 6.33148 10.395 6.21289L7.64748 3.59569L6.80262 2.79089V3.95773V14.9133C6.80262 15.0757 6.7351 15.2367 6.60635 15.3594C6.47678 15.4828 6.29607 15.5562 6.10286 15.5562C5.90964 15.5562 5.72894 15.4828 5.59936 15.3594C5.47062 15.2367 5.4031 15.0757 5.4031 14.9133V3.95773V2.79159L4.55839 3.59554L1.80494 6.21615L1.80488 6.21609L1.79854 6.22234C1.73513 6.28489 1.65794 6.33605 1.57085 6.37169C1.48373 6.40734 1.38919 6.42641 1.29296 6.42721C1.19673 6.428 1.1018 6.4105 1.01393 6.37626C0.926093 6.34202 0.847855 6.29207 0.783182 6.23046L0.438315 6.59249Z" fill="#0E9F6E" stroke="#0E9F6E"/>
</svg>
