<svg width="13" height="17" viewBox="0 0 13 17" fill="none" xmlns="http://www.w3.org/2000/svg">
    <path d="M11.3898 9.89509L11.3902 9.89548C11.5189 10.0179 11.5867 10.1788 11.5869 10.3414C11.5872 10.5038 11.52 10.6647 11.392 10.7874C11.3919 10.7875 11.3917 10.7876 11.3916 10.7878L6.59844 15.3583L6.59808 15.3587C6.53452 15.4194 6.45757 15.4686 6.37115 15.5023L6.37114 15.5023L6.36682 15.504C6.28144 15.5382 6.18896 15.5562 6.095 15.5562C6.00105 15.5562 5.90857 15.5382 5.82319 15.504L5.8232 15.504L5.81886 15.5023C5.73243 15.4686 5.65548 15.4194 5.59192 15.3587L5.59156 15.3583L0.797833 10.7872L0.797885 10.7872L0.791504 10.7813C0.72575 10.7207 0.674702 10.6496 0.640088 10.5728C0.605505 10.496 0.587685 10.4144 0.586939 10.3325C0.586192 10.2505 0.602521 10.1687 0.635648 10.0915C0.668804 10.0142 0.71846 9.9424 0.782977 9.88088C0.847547 9.81931 0.925632 9.76941 1.01327 9.73522C1.10093 9.70101 1.19563 9.68354 1.29162 9.68434C1.38761 9.68513 1.48191 9.70417 1.56883 9.73978C1.65573 9.77537 1.73276 9.82648 1.79608 9.88899L1.79603 9.88905L1.80231 9.89504L4.55032 12.5154L5.39537 13.3212V12.1536V1.19893C5.39537 1.03633 5.46289 0.875297 5.59144 0.75272C5.72079 0.629371 5.9011 0.556152 6.0938 0.556152C6.28651 0.556152 6.46682 0.629372 6.59617 0.75272C6.72472 0.875298 6.79224 1.03633 6.79224 1.19893V12.1536V13.3212L7.63729 12.5154L10.3852 9.89509C10.3853 9.89508 10.3853 9.89506 10.3853 9.89504C10.5146 9.77177 10.6949 9.6986 10.8875 9.6986C11.0802 9.6986 11.2605 9.77179 11.3898 9.89509Z" fill="#F05252" stroke="#F05252"/>
</svg>
