<svg width="24" height="24" viewBox="0 0 24 24" fill="none" xmlns="http://www.w3.org/2000/svg">
    <path d="M24 4.8C24 4.16348 23.7471 3.55303 23.2971 3.10294C22.847 2.65286 22.2365 2.4 21.6 2.4H19.2V1.2C19.2 0.88174 19.0736 0.576515 18.8485 0.351472C18.6235 0.126428 18.3183 0 18 0C17.6817 0 17.3765 0.126428 17.1515 0.351472C16.9264 0.576515 16.8 0.88174 16.8 1.2V2.4H13.2V1.2C13.2 0.88174 13.0736 0.576515 12.8485 0.351472C12.6235 0.126428 12.3183 0 12 0C11.6817 0 11.3765 0.126428 11.1515 0.351472C10.9264 0.576515 10.8 0.88174 10.8 1.2V2.4H7.2V1.2C7.2 0.88174 7.07357 0.576515 6.84853 0.351472C6.62348 0.126428 6.31826 0 6 0C5.68174 0 5.37652 0.126428 5.15147 0.351472C4.92643 0.576515 4.8 0.88174 4.8 1.2V2.4H2.4C1.76348 2.4 1.15303 2.65286 0.702944 3.10294C0.252856 3.55303 0 4.16348 0 4.8V7.2H24V4.8Z" fill="#FF922E"/>
    <path d="M0 21.6C0 22.2365 0.252856 22.847 0.702944 23.2971C1.15303 23.7471 1.76348 24 2.4 24H21.6C22.2365 24 22.847 23.7471 23.2971 23.2971C23.7471 22.847 24 22.2365 24 21.6V9.6H0V21.6ZM6 12H18C18.3183 12 18.6235 12.1264 18.8485 12.3515C19.0736 12.5765 19.2 12.8817 19.2 13.2C19.2 13.5183 19.0736 13.8235 18.8485 14.0485C18.6235 14.2736 18.3183 14.4 18 14.4H6C5.68174 14.4 5.37652 14.2736 5.15147 14.0485C4.92643 13.8235 4.8 13.5183 4.8 13.2C4.8 12.8817 4.92643 12.5765 5.15147 12.3515C5.37652 12.1264 5.68174 12 6 12Z" fill="#FF922E"/>
</svg>
