<svg width="13" height="13" viewBox="0 0 13 13" fill="none" xmlns="http://www.w3.org/2000/svg">
    <g clip-path="url(#clip0_320_6674)">
        <path d="M6.83889 9.66651C6.55248 9.66603 6.27798 9.56044 6.07576 9.37297L1.76172 5.37471C1.65871 5.2825 1.5766 5.17226 1.52018 5.05042C1.46376 4.92858 1.43416 4.79758 1.43311 4.66507C1.43206 4.53256 1.45958 4.4012 1.51407 4.27863C1.56856 4.15607 1.64891 4.04476 1.75046 3.95121C1.852 3.85766 1.9727 3.78374 2.1055 3.73376C2.2383 3.68378 2.38055 3.65874 2.52395 3.66011C2.66735 3.66147 2.80903 3.68922 2.94072 3.74171C3.0724 3.79421 3.19146 3.87042 3.29094 3.96588L6.84248 7.25745L10.4038 3.97649C10.6078 3.79501 10.8807 3.69483 11.1639 3.69752C11.4471 3.70022 11.7178 3.80558 11.9178 3.9909C12.1177 4.17623 12.2309 4.4267 12.233 4.68836C12.2351 4.95003 12.1258 5.20195 11.9288 5.38987L7.60288 9.37525C7.40011 9.56212 7.1253 9.66688 6.83889 9.66651Z" fill="#6B7280"/>
    </g>
    <defs>
        <clipPath id="clip0_320_6674">
            <rect width="12" height="12" fill="white" transform="translate(0.839111 0.657471) rotate(0.0854463)"/>
        </clipPath>
    </defs>
</svg>
