<svg width="12" height="13" viewBox="0 0 12 13" fill="none" xmlns="http://www.w3.org/2000/svg">
    <path d="M9.91673 10.7C9.75914 10.7 9.608 10.7632 9.49656 10.8757C9.38513 10.9883 9.32252 11.1409 9.32252 11.3L2.19199 11.3L2.19199 4.70001L3.97462 4.70001C4.28981 4.70001 4.59209 4.57358 4.81496 4.34853C5.03784 4.12349 5.16304 3.81827 5.16304 3.50001L5.16304 1.70001L9.32252 1.70001L9.32252 4.10001C9.32252 4.25914 9.38513 4.41175 9.49656 4.52427C9.608 4.63679 9.75914 4.70001 9.91673 4.70001C10.0743 4.70001 10.2255 4.63679 10.3369 4.52427C10.4483 4.41175 10.5109 4.25914 10.5109 4.10001L10.5109 1.70001C10.5159 1.38718 10.3977 1.08515 10.1824 0.860188C9.96705 0.635222 9.67213 0.50569 9.36233 0.500009L4.46722 0.500009C4.23294 0.499256 4.00083 0.545488 3.78438 0.636023C3.56793 0.726557 3.37144 0.859592 3.20631 1.02741L1.52588 2.72421C1.35968 2.89095 1.22793 3.08936 1.13827 3.30792C1.04861 3.52648 1.00282 3.76084 1.00357 3.99741L1.00357 11.3C0.998637 11.6128 1.1168 11.9149 1.33213 12.1398C1.54746 12.3648 1.84238 12.4943 2.15218 12.5L9.32252 12.5C9.63771 12.5 9.93999 12.3736 10.1629 12.1485C10.3857 11.9235 10.5109 11.6183 10.5109 11.3C10.5109 11.1409 10.4483 10.9883 10.3369 10.8757C10.2255 10.7632 10.0743 10.7 9.91673 10.7ZM3.97462 1.94841L3.97462 3.50001L2.43799 3.50001L3.97462 1.94841Z" fill="white"/>
    <path d="M10.8294 7.2758L9.18466 5.61501C9.12985 5.5577 9.06428 5.51199 8.99179 5.48054C8.91929 5.4491 8.84132 5.43255 8.76242 5.43186C8.68352 5.43116 8.60527 5.44634 8.53225 5.47651C8.45922 5.50668 8.39288 5.55123 8.33708 5.60757C8.28129 5.6639 8.23717 5.7309 8.20729 5.80463C8.17742 5.87837 8.16238 5.95738 8.16307 6.03705C8.16375 6.11671 8.18014 6.19545 8.21129 6.26865C8.24243 6.34185 8.2877 6.40806 8.34445 6.4634L8.97431 7.1L5.16304 7.1C5.00545 7.1 4.85431 7.16322 4.74287 7.27574C4.63144 7.38826 4.56883 7.54087 4.56883 7.7C4.56883 7.85913 4.63144 8.01175 4.74287 8.12427C4.85431 8.23679 5.00545 8.3 5.16304 8.3L8.97431 8.3L8.34445 8.9366C8.2877 8.99195 8.24243 9.05816 8.21129 9.13136C8.18014 9.20456 8.16375 9.28329 8.16307 9.36296C8.16238 9.44263 8.17742 9.52164 8.20729 9.59538C8.23717 9.66911 8.28129 9.7361 8.33708 9.79244C8.39288 9.84877 8.45922 9.89333 8.53225 9.9235C8.60527 9.95366 8.68352 9.96884 8.76242 9.96815C8.84132 9.96746 8.91929 9.95091 8.99179 9.91946C9.06428 9.88802 9.12985 9.84231 9.18466 9.785L10.8294 8.1242C10.9408 8.01169 11.0034 7.8591 11.0034 7.7C11.0034 7.54091 10.9408 7.38832 10.8294 7.2758Z" fill="white"/>
</svg>
