<svg width="24" height="24" viewBox="0 0 24 24" fill="none" xmlns="http://www.w3.org/2000/svg">
    <path d="M21.6 21H2.4C1.76348 21 1.15303 20.7291 0.702944 20.2468C0.252856 19.7646 0 19.1106 0 18.4286V15.2143C0 14.8733 0.126428 14.5463 0.351472 14.3051C0.576515 14.064 0.88174 13.9286 1.2 13.9286C1.67739 13.9286 2.13523 13.7254 2.47279 13.3637C2.81036 13.002 3 12.5115 3 12C3 11.4885 2.81036 10.998 2.47279 10.6363C2.13523 10.2746 1.67739 10.0714 1.2 10.0714C0.88174 10.0714 0.576515 9.93597 0.351472 9.69485C0.126428 9.45373 0 9.12671 0 8.78571V5.57143C0 4.88944 0.252856 4.23539 0.702944 3.75315C1.15303 3.27092 1.76348 3 2.4 3H21.6C22.2365 3 22.847 3.27092 23.2971 3.75315C23.7471 4.23539 24 4.88944 24 5.57143V8.78571C24 9.12671 23.8736 9.45373 23.6485 9.69485C23.4235 9.93597 23.1183 10.0714 22.8 10.0714C22.3226 10.0714 21.8648 10.2746 21.5272 10.6363C21.1896 10.998 21 11.4885 21 12C21 12.5115 21.1896 13.002 21.5272 13.3637C21.8648 13.7254 22.3226 13.9286 22.8 13.9286C23.1183 13.9286 23.4235 14.064 23.6485 14.3051C23.8736 14.5463 24 14.8733 24 15.2143V18.4286C24 19.1106 23.7471 19.7646 23.2971 20.2468C22.847 20.7291 22.2365 21 21.6 21Z" fill="#6C2BD9"/>
</svg>
