<svg width="16" height="16" viewBox="0 0 16 16" fill="none" xmlns="http://www.w3.org/2000/svg">
    <path fill-rule="evenodd" clip-rule="evenodd" d="M8 16C10.1217 16 12.1566 15.1571 13.6569 13.6569C15.1571 12.1566 16 10.1217 16 8C16 5.87827 15.1571 3.84344 13.6569 2.34315C12.1566 0.842855 10.1217 0 8 0C5.87827 0 3.84344 0.842855 2.34315 2.34315C0.842855 3.84344 0 5.87827 0 8C0 10.1217 0.842855 12.1566 2.34315 13.6569C3.84344 15.1571 5.87827 16 8 16Z" fill="#EC5962"/>
    <path d="M6.0038 5.01224C6.266 5.00997 6.5186 5.11076 6.7072 5.29292L8.0002 6.58592L9.2932 5.29292C9.48181 5.11076 9.73441 5.00997 9.9966 5.01224C10.2588 5.01452 10.5096 5.11969 10.695 5.3051C10.8804 5.49051 10.9856 5.74132 10.9879 6.00352C10.9902 6.26572 10.8894 6.51832 10.7072 6.70692L9.4142 7.99992L10.7072 9.29292C10.8894 9.48152 10.9902 9.73412 10.9879 9.99632C10.9856 10.2585 10.8804 10.5093 10.695 10.6947C10.5096 10.8801 10.2588 10.9853 9.9966 10.9876C9.73441 10.9899 9.48181 10.8891 9.2932 10.7069L8.0002 9.41392L6.7072 10.7069C6.61496 10.8024 6.50461 10.8786 6.38261 10.931C6.2606 10.9834 6.12938 11.011 5.9966 11.0122C5.86383 11.0133 5.73215 10.988 5.60925 10.9377C5.48635 10.8875 5.3747 10.8132 5.28081 10.7193C5.18692 10.6254 5.11266 10.5138 5.06238 10.3909C5.0121 10.268 4.9868 10.1363 4.98795 10.0035C4.98911 9.87074 5.01669 9.73952 5.0691 9.61751C5.12151 9.49551 5.19769 9.38517 5.2932 9.29292L6.5862 7.99992L5.2932 6.70692C5.11105 6.51832 5.01025 6.26572 5.01253 6.00352C5.01481 5.74132 5.11998 5.49051 5.30538 5.3051C5.49079 5.11969 5.74161 5.01452 6.0038 5.01224Z" fill="white"/>
</svg>
